HIERARCHY
ROOT Hips
{
	OFFSET 0.000000 83.214638 0.000000
	CHANNELS 6 Xposition Yposition Zposition Xrotation Yrotation Zrotation
	JOINT Pelvis
	{
		OFFSET 0.000000 0.000000 0.000000
		CHANNELS 3 Xrotation Yrotation Zrotation
		JOINT LeftUpLeg
		{
			OFFSET 8.479700 -4.795502 -0.379100
			CHANNELS 3 Xrotation Yrotation Zrotation
			JOINT LeftLeg
			{
				OFFSET 0.024144 -32.555107 0.112900
				CHANNELS 3 Xrotation Yrotation Zrotation
				JOINT LeftFoot
				{
					OFFSET -0.024144 -32.638630 -3.012600
					CHANNELS 3 Xrotation Yrotation Zrotation
					JOINT LeftToeBase
					{
						OFFSET 0.970200 -13.225400 11.864200
						CHANNELS 3 Xrotation Yrotation Zrotation
						End Site
						{
							OFFSET 0.000000 12.319262 0.000000
						}
					}
					JOINT LFootTongue
					{
						OFFSET 1.142400 -1.059800 6.665200
						CHANNELS 3 Xrotation Yrotation Zrotation
						End Site
						{
							OFFSET 0.000000 12.319262 0.000000
						}
					}
				}
				JOINT LeftPantLeg
				{
					OFFSET 0.918482 -16.533964 -2.284700
					CHANNELS 3 Xrotation Yrotation Zrotation
					End Site
					{
						OFFSET 0.350399 24.744368 0.000000
					}
				}
			}
		}
		JOINT RightUpLeg
		{
			OFFSET -8.479700 -4.795502 -0.379100
			CHANNELS 3 Xrotation Yrotation Zrotation
			JOINT RightLeg
			{
				OFFSET -0.023144 -32.555092 0.112900
				CHANNELS 3 Xrotation Yrotation Zrotation
				JOINT RightFoot
				{
					OFFSET 0.023144 -32.638641 -3.012700
					CHANNELS 3 Xrotation Yrotation Zrotation
					JOINT RightToeBase
					{
						OFFSET -0.970200 -13.225400 11.864200
						CHANNELS 3 Xrotation Yrotation Zrotation
						End Site
						{
							OFFSET 0.000000 12.319244 0.000000
						}
					}
					JOINT RFootTongue
					{
						OFFSET -1.142200 -1.059800 6.665200
						CHANNELS 3 Xrotation Yrotation Zrotation
						End Site
						{
							OFFSET 0.000000 12.319243 0.000000
						}
					}
				}
				JOINT RightPantLeg
				{
					OFFSET -0.919482 -16.533978 -2.284800
					CHANNELS 3 Xrotation Yrotation Zrotation
					End Site
					{
						OFFSET -0.350400 24.744419 0.000000
					}
				}
			}
		}
	}
	JOINT Spine
	{
		OFFSET 0.000000 7.722000 1.166200
		CHANNELS 3 Xrotation Yrotation Zrotation
		JOINT Spine1
		{
			OFFSET 0.000000 12.024101 0.248800
			CHANNELS 3 Xrotation Yrotation Zrotation
			JOINT Spine2
			{
				OFFSET 0.000000 11.502998 -0.491200
				CHANNELS 3 Xrotation Yrotation Zrotation
				JOINT Neck
				{
					OFFSET 0.000000 18.430702 -3.123100
					CHANNELS 3 Xrotation Yrotation Zrotation
					JOINT Head
					{
						OFFSET 0.000000 9.051102 1.034000
						CHANNELS 3 Xrotation Yrotation Zrotation
						JOINT HairB
						{
							OFFSET 0.208400 24.786102 24.822300
							CHANNELS 3 Xrotation Yrotation Zrotation
							End Site
							{
								OFFSET 0.000000 32.263779 0.000000
							}
						}
						JOINT HairA
						{
							OFFSET -7.081100 24.428299 23.196600
							CHANNELS 3 Xrotation Yrotation Zrotation
							End Site
							{
								OFFSET 0.000000 32.263779 0.000000
							}
						}
						JOINT Hat
						{
							OFFSET 16.728800 15.048294 -15.439601
							CHANNELS 3 Xrotation Yrotation Zrotation
							End Site
							{
								OFFSET 0.000000 32.263779 0.000000
							}
						}
					}
				}
				JOINT LeftShoulder
				{
					OFFSET 6.197800 13.665199 -4.064700
					CHANNELS 3 Xrotation Yrotation Zrotation
					JOINT LeftArm
					{
						OFFSET 7.778100 -0.187103 -1.709300
						CHANNELS 3 Xrotation Yrotation Zrotation
						JOINT LeftForeArm
						{
							OFFSET 22.049376 0.000000 0.000000
							CHANNELS 3 Xrotation Yrotation Zrotation
							JOINT LeftHand
							{
								OFFSET 23.009392 0.000000 0.000000
								CHANNELS 3 Xrotation Yrotation Zrotation
								JOINT LeftHandThumb1
								{
									OFFSET 3.507191 -2.063065 3.133727
									CHANNELS 3 Xrotation Yrotation Zrotation
									JOINT LeftHandThumb2
									{
										OFFSET 3.101337 -1.790558 1.790558
										CHANNELS 3 Xrotation Yrotation Zrotation
										JOINT LeftHandThumb3
										{
											OFFSET 3.058640 -1.765907 1.765906
											CHANNELS 3 Xrotation Yrotation Zrotation
											End Site
											{
												OFFSET -0.415260 3.926476 -0.049563
											}
										}
									}
								}
								JOINT LeftHandIndex1
								{
									OFFSET 11.334419 -0.901459 3.706815
									CHANNELS 3 Xrotation Yrotation Zrotation
									JOINT LeftHandIndex2
									{
										OFFSET 3.283112 0.000000 0.000000
										CHANNELS 3 Xrotation Yrotation Zrotation
										JOINT LeftHandIndex3
										{
											OFFSET 3.323853 0.000000 0.000000
											CHANNELS 3 Xrotation Yrotation Zrotation
											End Site
											{
												OFFSET -1.135597 3.097809 0.402452
											}
										}
									}
								}
								JOINT LeftHandMiddle1
								{
									OFFSET 11.335861 0.000000 0.000000
									CHANNELS 3 Xrotation Yrotation Zrotation
									JOINT LeftHandMiddle2
									{
										OFFSET 3.410492 0.000000 0.000000
										CHANNELS 3 Xrotation Yrotation Zrotation
										JOINT LeftHandMiddle3
										{
											OFFSET 3.312172 0.000000 0.000000
											CHANNELS 3 Xrotation Yrotation Zrotation
											End Site
											{
												OFFSET -1.150200 3.080154 0.400270
											}
										}
									}
								}
								JOINT LeftHandRing1
								{
									OFFSET 11.514786 -0.013176 -3.003090
									CHANNELS 3 Xrotation Yrotation Zrotation
									JOINT LeftHandRing2
									{
										OFFSET 3.053307 0.000000 0.000000
										CHANNELS 3 Xrotation Yrotation Zrotation
										JOINT LeftHandRing3
										{
											OFFSET 3.295807 0.000000 0.000000
											CHANNELS 3 Xrotation Yrotation Zrotation
											End Site
											{
												OFFSET -1.281006 3.013344 0.375733
											}
										}
									}
								}
								JOINT LeftHandPinky1
								{
									OFFSET 10.518692 -0.960396 -5.730441
									CHANNELS 3 Xrotation Yrotation Zrotation
									JOINT LeftHandPinky2
									{
										OFFSET 2.861649 0.000000 0.000000
										CHANNELS 3 Xrotation Yrotation Zrotation
										JOINT LeftHandPinky3
										{
											OFFSET 2.863380 0.000000 0.000000
											CHANNELS 3 Xrotation Yrotation Zrotation
											End Site
											{
												OFFSET -0.843597 2.711159 0.369971
											}
										}
									}
								}
							}
							JOINT LSleeve
							{
								OFFSET 6.676277 -0.344902 -1.011730
								CHANNELS 3 Xrotation Yrotation Zrotation
								End Site
								{
									OFFSET 0.000000 14.885353 0.000000
								}
							}
						}
					}
				}
				JOINT RightShoulder
				{
					OFFSET -6.197800 13.665199 -4.064700
					CHANNELS 3 Xrotation Yrotation Zrotation
					JOINT RightArm
					{
						OFFSET -7.778100 -0.187103 -1.709300
						CHANNELS 3 Xrotation Yrotation Zrotation
						JOINT RightForeArm
						{
							OFFSET -22.049376 0.000000 0.000000
							CHANNELS 3 Xrotation Yrotation Zrotation
							JOINT RightHand
							{
								OFFSET -23.009392 0.000000 0.000000
								CHANNELS 3 Xrotation Yrotation Zrotation
								JOINT RightHandThumb1
								{
									OFFSET -3.507191 -2.063065 3.133727
									CHANNELS 3 Xrotation Yrotation Zrotation
									JOINT RightHandThumb2
									{
										OFFSET -3.101337 -1.790558 1.790558
										CHANNELS 3 Xrotation Yrotation Zrotation
										JOINT RightHandThumb3
										{
											OFFSET -3.058640 -1.765907 1.765906
											CHANNELS 3 Xrotation Yrotation Zrotation
											End Site
											{
												OFFSET 0.415260 3.926476 -0.049563
											}
										}
									}
								}
								JOINT RightHandIndex1
								{
									OFFSET -11.334419 -0.901459 3.706815
									CHANNELS 3 Xrotation Yrotation Zrotation
									JOINT RightHandIndex2
									{
										OFFSET -3.283112 0.000000 0.000000
										CHANNELS 3 Xrotation Yrotation Zrotation
										JOINT RightHandIndex3
										{
											OFFSET -3.323853 0.000000 0.000000
											CHANNELS 3 Xrotation Yrotation Zrotation
											End Site
											{
												OFFSET 1.135597 3.097809 0.402452
											}
										}
									}
								}
								JOINT RightHandMiddle1
								{
									OFFSET -11.335861 0.000000 0.000000
									CHANNELS 3 Xrotation Yrotation Zrotation
									JOINT RightHandMiddle2
									{
										OFFSET -3.410492 0.000000 0.000000
										CHANNELS 3 Xrotation Yrotation Zrotation
										JOINT RightHandMiddle3
										{
											OFFSET -3.312172 0.000000 0.000000
											CHANNELS 3 Xrotation Yrotation Zrotation
											End Site
											{
												OFFSET 1.150200 3.080154 0.400270
											}
										}
									}
								}
								JOINT RightHandRing1
								{
									OFFSET -11.514786 -0.013176 -3.003090
									CHANNELS 3 Xrotation Yrotation Zrotation
									JOINT RightHandRing2
									{
										OFFSET -3.053307 0.000000 0.000000
										CHANNELS 3 Xrotation Yrotation Zrotation
										JOINT RightHandRing3
										{
											OFFSET -3.295807 0.000000 0.000000
											CHANNELS 3 Xrotation Yrotation Zrotation
											End Site
											{
												OFFSET 1.281006 3.013344 0.375733
											}
										}
									}
								}
								JOINT RightHandPinky1
								{
									OFFSET -10.518692 -0.960396 -5.730441
									CHANNELS 3 Xrotation Yrotation Zrotation
									JOINT RightHandPinky2
									{
										OFFSET -2.861649 0.000000 0.000000
										CHANNELS 3 Xrotation Yrotation Zrotation
										JOINT RightHandPinky3
										{
											OFFSET -2.863380 0.000000 0.000000
											CHANNELS 3 Xrotation Yrotation Zrotation
											End Site
											{
												OFFSET 0.843597 2.711159 0.369971
											}
										}
									}
								}
							}
							JOINT RSleeve
							{
								OFFSET -6.676277 -0.344902 -1.011730
								CHANNELS 3 Xrotation Yrotation Zrotation
								End Site
								{
									OFFSET 0.000000 14.885353 0.000000
								}
							}
						}
					}
				}
				JOINT Backpack
				{
					OFFSET 0.000000 -2.471497 36.677502
					CHANNELS 3 Xrotation Yrotation Zrotation
					End Site
					{
						OFFSET 0.000000 20.427315 0.000000
					}
				}
				JOINT Hood
				{
					OFFSET 0.000000 18.754097 -10.431000
					CHANNELS 3 Xrotation Yrotation Zrotation
					JOINT Hood1
					{
						OFFSET 0.000000 -5.011002 -7.685901
						CHANNELS 3 Xrotation Yrotation Zrotation
						End Site
						{
							OFFSET 0.000000 9.175140 0.000000
						}
					}
				}
				JOINT LHoodieString
				{
					OFFSET 5.250500 16.397697 3.089900
					CHANNELS 3 Xrotation Yrotation Zrotation
					JOINT LHoodieString1
					{
						OFFSET 0.257700 -6.364304 3.694600
						CHANNELS 3 Xrotation Yrotation Zrotation
						JOINT LHoodieString2
						{
							OFFSET 0.000000 -9.643799 2.679100
							CHANNELS 3 Xrotation Yrotation Zrotation
							End Site
							{
								OFFSET 0.000000 10.009018 0.000000
							}
						}
					}
				}
				JOINT RHoodieString
				{
					OFFSET -5.250500 16.397697 3.089900
					CHANNELS 3 Xrotation Yrotation Zrotation
					JOINT RHoodieString1
					{
						OFFSET -0.257700 -6.364304 3.694600
						CHANNELS 3 Xrotation Yrotation Zrotation
						JOINT RHoodieString2
						{
							OFFSET 0.000000 -9.643799 2.679100
							CHANNELS 3 Xrotation Yrotation Zrotation
							End Site
							{
								OFFSET 0.000000 10.009018 0.000000
							}
						}
					}
				}
			}
			JOINT LBackpack_Strap
			{
				OFFSET 15.223200 -7.719803 -6.610900
				CHANNELS 3 Xrotation Yrotation Zrotation
				End Site
				{
					OFFSET 0.000000 16.040596 0.000000
				}
			}
			JOINT RBackpack_Strap
			{
				OFFSET -15.223000 -7.719803 -6.610900
				CHANNELS 3 Xrotation Yrotation Zrotation
				End Site
				{
					OFFSET 0.000000 16.040596 0.000000
				}
			}
		}
	}
	JOINT BoyFacialAnim_Joint
	{
		OFFSET 1.000000 -82.208099 -1.550900
		CHANNELS 3 Xrotation Yrotation Zrotation
		End Site
		{
			OFFSET 0.000000 30.012791 0.000000
		}
	}
}
MOTION
Frames: 5
Frame Time: 0.016667
-26.523855 41.241714 225.825607 190.001752 13.583408 -177.228465 0.000001 0.000001 0.000000 -98.501676 0.982467 36.741384 108.509200 -0.702323 -3.624656 1.733935 -9.874141 12.010836 -0.000000 -0.000000 0.000000 -0.000000 -0.000000 0.000000 -0.000000 -0.000001 0.000001 -100.166807 8.695944 -15.531259 112.180468 -7.727824 2.276084 -1.712297 2.894285 -13.068896 -0.000001 -0.000000 -0.000000 -0.000001 -0.000000 -0.000000 -0.000000 0.000002 -0.000001 16.792478 -3.967461 -8.968598 3.969194 -0.741156 -2.119502 3.979512 -0.739450 -2.101519 0.912699 0.186795 0.154902 -20.090703 -2.727747 8.655177 0.000000 0.000001 -0.000000 0.000000 0.000001 -0.000000 0.000000 0.000001 -0.000000 1.384111 -5.715088 -11.757628 -18.360583 -40.146220 -47.046145 -0.000016 -56.855451 -0.000018 40.891871 -11.279958 -14.873598 -9.353696 -4.410878 -1.012467 21.377809 38.831114 0.008447 -0.000001 -0.000002 -0.000001 1.241280 5.556518 -31.143737 2.581743 4.855106 -55.983895 0.000003 0.000001 -0.000002 2.333424 7.138685 -41.308233 3.977880 5.544112 -71.298132 -0.000001 -0.000001 -0.000000 2.817962 7.449819 -47.416590 3.975383 5.543268 -71.272409 0.000001 -0.000001 -0.000002 2.416443 7.232752 -41.295501 3.976811 5.543770 -71.287101 -0.000003 -0.000002 0.000001 -0.000001 0.000000 -0.000001 -4.126461 21.353060 -2.025799 -21.913714 29.410764 24.489290 0.000000 107.646438 -0.000001 -60.125841 14.340467 -11.279292 49.904548 33.562450 -17.441701 11.431402 -12.158971 7.800690 -0.000002 -0.000001 -0.000002 0.249893 -3.804214 14.940620 2.023895 -3.842606 55.538717 -0.000001 0.000001 0.000004 1.128252 -5.542194 26.437077 1.145660 -3.061072 41.030292 -0.000001 0.000000 0.000002 1.283874 -5.672062 29.821893 1.502245 -3.427483 47.325267 0.000003 -0.000001 -0.000001 1.244974 -5.502207 26.494331 0.986033 -2.867631 37.944692 -0.000001 0.000000 -0.000001 0.000000 0.000002 -0.000000 0.000001 0.000003 0.000001 0.000001 0.000003 0.000001 0.000001 0.000003 0.000001 0.000001 0.000003 0.000001 0.000001 0.000003 0.000001 0.000000 0.000001 -0.000000 0.000001 0.000003 0.000001 0.000001 0.000003 0.000001 0.000000 0.000001 -0.000000 -0.000001 0.000001 0.000000 -0.000001 0.000001 0.000000 0.000001 0.000001 0.000000 
-26.517479 41.241417 225.825333 189.958271 13.585363 -177.230718 0.000001 -0.000001 -0.000000 -98.536831 0.947752 36.714357 108.507821 -0.702502 -3.622949 1.734770 -9.851265 11.985784 -0.000000 0.000000 -0.000000 -0.000000 0.000000 -0.000000 0.000000 -0.000002 -0.000000 -100.205193 8.676534 -15.533218 112.181725 -7.727475 2.283013 -1.705420 2.893936 -13.075440 -0.000000 -0.000001 0.000001 -0.000000 -0.000001 0.000001 0.000000 -0.000001 0.000001 16.780144 -3.953151 -8.953158 3.960998 -0.736596 -2.125365 3.971169 -0.734085 -2.108097 0.911081 0.174949 0.179146 -20.499628 -2.826081 8.645566 0.000000 0.000001 0.000000 0.000000 0.000001 0.000000 0.000000 0.000001 0.000000 1.385422 -5.719496 -11.741860 -18.383999 -40.127337 -47.070590 -0.000019 -56.804832 -0.000015 40.970439 -11.176331 -14.771744 -9.625164 -4.324145 -1.515796 21.379132 38.837552 0.008460 0.000000 0.000000 -0.000002 1.241007 5.556787 -31.144044 2.581814 4.855165 -55.984902 -0.000003 0.000000 0.000002 2.333946 7.139077 -41.314581 3.978633 5.544371 -71.305932 -0.000001 -0.000002 -0.000000 2.846259 7.466682 -47.739874 3.975186 5.543196 -71.270469 -0.000004 0.000001 0.000001 2.416456 7.232773 -41.296027 3.978164 5.544207 -71.301014 -0.000001 0.000001 0.000002 0.000002 0.000001 0.000003 -4.269431 21.023295 -2.430173 -22.824073 29.584295 24.643070 0.000003 108.149536 0.000000 -60.083938 15.273713 -11.131801 49.905129 33.561306 -17.441679 11.433888 -12.159216 7.799881 -0.000001 0.000001 -0.000003 0.250022 -3.804672 14.942268 2.024061 -3.842687 55.541025 -0.000001 -0.000001 0.000002 1.128546 -5.542718 26.438812 1.145707 -3.061168 41.031757 -0.000001 -0.000001 -0.000000 1.283040 -5.670581 29.822457 1.502275 -3.427525 47.325923 -0.000000 -0.000001 0.000000 1.248108 -5.501242 26.496583 0.986101 -2.867740 37.946352 -0.000000 -0.000001 0.000000 -0.000001 -0.000003 -0.000002 -0.000002 0.000002 -0.000000 -0.000002 0.000002 -0.000000 -0.000002 0.000002 -0.000000 -0.000002 0.000002 -0.000000 -0.000002 0.000002 0.000001 -0.000002 0.000002 0.000000 -0.000002 0.000002 -0.000000 -0.000002 0.000002 0.000001 -0.000002 0.000002 0.000000 0.000000 -0.000001 -0.000000 0.000000 -0.000001 -0.000000 0.000001 -0.000001 -0.000000 
-26.508724 41.243980 225.824493 189.950798 13.595930 -177.235691 -0.000000 0.000001 0.000000 -98.533040 0.923312 36.694228 108.506236 -0.714224 -3.620944 1.737453 -9.829350 11.994698 -0.000000 0.000001 -0.000000 -0.000000 0.000001 -0.000000 -0.000000 0.000000 0.000000 -100.210042 8.651027 -15.534782 112.181718 -7.718532 2.289862 -1.725712 2.893747 -13.092884 0.000000 -0.000001 -0.000000 0.000000 -0.000001 -0.000000 -0.000000 -0.000003 0.000001 16.771103 -3.940480 -8.939282 3.953007 -0.732008 -2.129828 3.963046 -0.728870 -2.113284 0.909228 0.164212 0.204960 -20.937817 -2.917524 8.648819 -0.000000 -0.000000 -0.000000 -0.000000 -0.000000 -0.000000 -0.000000 -0.000000 -0.000000 1.385778 -5.726418 -11.728838 -18.401727 -40.104275 -47.092761 0.000024 -56.770780 0.000030 41.050567 -11.060292 -14.665987 -9.875552 -4.238476 -2.020552 21.379129 38.837559 0.008465 0.000000 -0.000001 -0.000004 1.240747 5.557044 -31.144433 2.581916 4.855241 -55.986005 -0.000002 -0.000002 -0.000004 2.334230 7.139313 -41.318055 3.978896 5.544444 -71.308623 -0.000000 -0.000001 -0.000005 2.874044 7.483020 -48.056186 3.975043 5.543147 -71.268858 -0.000000 0.000003 -0.000002 2.416472 7.232780 -41.296563 3.978224 5.544237 -71.301581 0.000002 0.000000 -0.000000 -0.000001 0.000001 0.000002 -4.382721 20.715691 -2.732462 -23.680768 29.747875 24.695000 0.000004 108.551889 0.000003 -59.952641 16.384389 -10.966999 49.905747 33.560175 -17.441726 11.436420 -12.159714 7.799025 -0.000001 -0.000001 -0.000002 0.250155 -3.805109 14.943865 2.024211 -3.842791 55.543317 -0.000003 -0.000001 0.000002 1.128852 -5.543240 26.440509 1.145802 -3.061261 41.033342 -0.000004 -0.000000 0.000002 1.282223 -5.669144 29.823454 1.502374 -3.427574 47.327009 0.000001 -0.000002 0.000000 1.251222 -5.500295 26.498832 0.986197 -2.867835 37.947964 -0.000002 -0.000000 0.000000 0.000001 -0.000004 -0.000001 0.000000 0.000002 -0.000000 0.000000 0.000002 -0.000000 0.000000 0.000002 -0.000000 0.000000 0.000002 -0.000000 0.000000 0.000002 -0.000001 -0.000000 0.000002 -0.000001 0.000000 0.000002 -0.000000 0.000000 0.000002 -0.000001 -0.000000 0.000002 -0.000001 -0.000001 0.000002 -0.000000 -0.000001 0.000002 -0.000000 -0.000000 0.000001 0.000000 
-26.499062 41.246071 225.819946 189.940075 13.608047 -177.238546 -0.000000 0.000000 -0.000000 -98.524058 0.886910 36.682637 108.504911 -0.724400 -3.618867 1.739633 -9.806714 11.946345 -0.000000 0.000000 -0.000000 -0.000000 0.000000 0.000000 -0.000000 -0.000001 0.000001 -100.215875 8.628472 -15.537478 112.177661 -7.708308 2.297314 -1.731901 2.893545 -13.110391 -0.000000 0.000001 -0.000000 -0.000000 0.000001 -0.000000 -0.000000 0.000001 -0.000000 16.762500 -3.932852 -8.924562 3.944887 -0.728167 -2.131930 3.954820 -0.724027 -2.115637 0.906905 0.156214 0.232184 -21.411175 -2.995303 8.669107 -0.000000 -0.000001 -0.000000 -0.000000 -0.000001 -0.000000 -0.000000 -0.000001 -0.000000 1.385075 -5.737307 -11.717955 -18.413625 -40.072399 -47.113040 -0.000003 -56.750864 -0.000010 41.115318 -10.949186 -14.571614 -10.109453 -4.152942 -2.519853 21.379126 38.837555 0.008459 -0.000001 -0.000002 0.000000 1.240484 5.557317 -31.144959 2.582024 4.855312 -55.987211 -0.000001 0.000001 -0.000002 2.334402 7.139423 -41.320186 3.979026 5.544494 -71.309982 -0.000003 -0.000001 -0.000003 2.901213 7.498781 -48.364621 3.974925 5.543106 -71.267526 -0.000003 -0.000000 0.000005 2.416491 7.232774 -41.297141 3.977458 5.543984 -71.293713 -0.000002 -0.000003 -0.000001 0.000001 -0.000001 0.000002 -4.490362 20.422749 -2.985062 -24.488602 29.920900 24.697421 -0.000000 108.890366 0.000009 -59.803162 17.545395 -10.769468 49.906406 33.559079 -17.441791 11.438876 -12.160194 7.798191 -0.000001 -0.000000 -0.000002 0.250300 -3.805543 14.945466 2.024353 -3.842909 55.545574 0.000001 0.000000 0.000002 1.129148 -5.543752 26.442090 1.145906 -3.061389 41.035333 -0.000000 0.000001 -0.000000 1.281513 -5.667787 29.825507 1.502474 -3.427675 47.328918 0.000000 0.000001 0.000000 1.254286 -5.499352 26.501074 0.986293 -2.867943 37.949579 -0.000002 0.000000 0.000000 0.000000 0.000001 0.000001 -0.000001 -0.000001 -0.000000 -0.000001 -0.000001 -0.000000 -0.000001 -0.000001 -0.000000 -0.000001 -0.000001 -0.000000 -0.000001 -0.000001 0.000001 -0.000001 -0.000001 0.000000 -0.000001 -0.000001 -0.000000 -0.000001 -0.000001 0.000001 -0.000001 -0.000001 0.000000 -0.000001 0.000001 0.000000 -0.000001 0.000001 0.000000 -0.000000 0.000000 -0.000000 
-26.496695 41.247978 225.823364 189.907044 13.614503 -177.254706 0.000001 0.000000 -0.000000 -98.556167 0.847079 36.662120 108.504139 -0.730599 -3.616671 1.743536 -9.784644 11.922550 -0.000000 0.000001 -0.000000 -0.000000 0.000001 -0.000000 -0.000001 -0.000001 -0.000001 -100.241659 8.592511 -15.544462 112.164520 -7.704623 2.306093 -1.735209 2.893825 -13.126305 0.000000 -0.000001 -0.000001 0.000000 -0.000001 -0.000001 0.000000 0.000001 -0.000000 16.749820 -3.929311 -8.905820 3.936247 -0.726284 -2.133479 3.946137 -0.719988 -2.117365 0.903837 0.149311 0.259419 -21.909471 -3.057870 8.701503 0.000000 0.000001 -0.000000 0.000000 0.000001 -0.000000 0.000000 0.000001 -0.000000 1.383556 -5.752321 -11.707943 -18.417708 -40.033829 -47.130754 0.000007 -56.739840 -0.000003 41.159341 -10.856825 -14.495895 -10.334114 -4.066109 -3.004650 21.379122 38.837572 0.008450 0.000001 -0.000000 -0.000001 1.240227 5.557599 -31.145710 2.582146 4.855380 -55.988546 -0.000001 0.000001 0.000000 2.334545 7.139521 -41.321996 3.979140 5.544529 -71.311136 -0.000001 -0.000000 -0.000002 2.927691 7.513948 -48.664490 3.974826 5.543082 -71.266535 -0.000001 -0.000001 -0.000002 2.416538 7.232778 -41.297810 3.976660 5.543717 -71.285469 -0.000002 0.000000 -0.000002 0.000000 -0.000000 0.000001 -4.607654 20.141296 -3.226563 -25.254293 30.109308 24.691889 0.000004 109.189433 -0.000000 -59.667310 18.657034 -10.533080 49.907093 33.557942 -17.441882 11.441277 -12.160687 7.797340 0.000001 0.000002 0.000001 0.250450 -3.805972 14.947036 2.024500 -3.843010 55.547811 -0.000000 0.000001 0.000004 1.129469 -5.544273 26.443617 1.146015 -3.061490 41.037245 -0.000000 0.000000 0.000002 1.280820 -5.666515 29.827535 1.502594 -3.427790 47.330923 0.000002 -0.000001 0.000002 1.257281 -5.498446 26.503330 0.986370 -2.868050 37.951256 -0.000003 0.000001 -0.000001 0.000001 -0.000002 0.000000 -0.000000 0.000000 -0.000000 -0.000000 0.000000 -0.000000 -0.000000 0.000000 -0.000000 -0.000000 0.000000 -0.000000 -0.000000 0.000000 0.000000 -0.000001 0.000002 0.000000 -0.000000 0.000000 -0.000000 -0.000000 0.000000 0.000000 -0.000001 0.000002 0.000000 0.000000 0.000000 -0.000000 0.000000 0.000000 -0.000000 0.000001 0.000000 -0.000000 
